# 3ds Max Wavefront OBJ Exporter v0.97b - (c)2007 guruware
# File Created: 25.03.2017 11:26:26

mtllib Craps-Table (00000).mtl

#
# object Box001
#

v  -1005.9137 0.0000 534.4590
v  -1043.2894 0.0000 532.4919
v  -1076.7308 0.0000 526.5905
v  -1106.2380 0.0000 516.7548
v  -1131.8108 0.0000 502.9847
v  -1153.4495 0.0000 485.2804
v  -1171.1537 0.0000 463.6419
v  -1184.9237 0.0000 438.0690
v  -1194.7594 0.0000 408.5619
v  -1200.6609 0.0000 375.1205
v  -1202.6279 0.0000 337.7447
v  -1202.6279 0.0000 -254.8267
v  -1200.6609 0.0000 -292.2024
v  -1194.7594 0.0000 -325.6438
v  -1184.9237 0.0000 -355.1510
v  -1171.1537 0.0000 -380.7238
v  -1153.4495 0.0000 -402.3624
v  -1131.8108 0.0000 -420.0667
v  -1106.2380 0.0000 -433.8367
v  -1076.7308 0.0000 -443.6724
v  -1043.2894 0.0000 -449.5739
v  -1005.9137 0.0000 -451.5410
v  508.6577 0.0000 -451.5410
v  546.0334 0.0000 -449.5739
v  579.4749 0.0000 -443.6724
v  608.9820 0.0000 -433.8367
v  634.5549 0.0000 -420.0667
v  656.1934 0.0000 -402.3624
v  673.8977 0.0000 -380.7238
v  687.6677 0.0000 -355.1510
v  697.5034 0.0000 -325.6438
v  703.4048 0.0000 -292.2024
v  705.3720 0.0000 -254.8267
v  705.3720 0.0000 337.7447
v  703.4048 0.0000 375.1205
v  697.5034 0.0000 408.5619
v  687.6677 0.0000 438.0690
v  673.8977 0.0000 463.6419
v  656.1934 0.0000 485.2804
v  634.5549 0.0000 502.9847
v  608.9820 0.0000 516.7548
v  579.4749 0.0000 526.5905
v  546.0334 0.0000 532.4919
v  508.6577 0.0000 534.4590
v  -1202.6279 800.0000 337.7447
v  -1200.6609 800.0000 375.1205
v  -1194.7594 800.0000 408.5619
v  -1184.9237 800.0000 438.0690
v  -1171.1537 800.0000 463.6419
v  -1153.4495 800.0000 485.2804
v  -1131.8108 800.0000 502.9847
v  -1106.2380 800.0000 516.7548
v  -1076.7308 800.0000 526.5905
v  -1043.2894 800.0000 532.4919
v  -1005.9137 800.0000 534.4590
v  508.6577 800.0000 534.4590
v  546.0334 800.0000 532.4919
v  579.4749 800.0000 526.5905
v  608.9820 800.0000 516.7548
v  634.5549 800.0000 502.9847
v  656.1934 800.0000 485.2804
v  673.8977 800.0000 463.6419
v  687.6677 800.0000 438.0690
v  697.5034 800.0000 408.5619
v  703.4048 800.0000 375.1205
v  705.3720 800.0000 337.7447
v  705.3720 800.0000 -254.8267
v  703.4048 800.0000 -292.2024
v  697.5034 800.0000 -325.6438
v  687.6677 800.0000 -355.1510
v  673.8977 800.0000 -380.7238
v  656.1934 800.0000 -402.3624
v  634.5549 800.0000 -420.0667
v  608.9820 800.0000 -433.8367
v  579.4749 800.0000 -443.6724
v  546.0334 800.0000 -449.5739
v  508.6577 800.0000 -451.5410
v  -1005.9137 800.0000 -451.5410
v  -1043.2894 800.0000 -449.5739
v  -1076.7308 800.0000 -443.6724
v  -1106.2380 800.0000 -433.8367
v  -1131.8108 800.0000 -420.0667
v  -1153.4495 800.0000 -402.3624
v  -1171.1537 800.0000 -380.7238
v  -1184.9237 800.0000 -355.1510
v  -1194.7594 800.0000 -325.6438
v  -1200.6609 800.0000 -292.2024
v  -1202.6279 800.0000 -254.8267
# 88 vertices

vn 0.0000 -1.0000 -0.0000
vn 0.0000 1.0000 -0.0000
vn -0.0263 0.0000 0.9997
vn 0.0263 0.0000 0.9997
vn 0.9997 0.0000 0.0263
vn 0.9997 0.0000 -0.0263
vn 0.0263 0.0000 -0.9997
vn -0.0263 0.0000 -0.9997
vn -0.9997 0.0000 -0.0263
vn -0.9997 0.0000 0.0263
vn 0.1134 0.0000 0.9936
vn -0.1134 0.0000 0.9936
vn 0.9936 0.0000 -0.1134
vn -0.1134 0.0000 -0.9936
vn 0.2457 0.0000 0.9694
vn 0.3966 0.0000 0.9180
vn 0.5562 0.0000 0.8310
vn 0.7071 0.0000 0.7071
vn 0.8310 0.0000 0.5562
vn 0.9180 0.0000 0.3966
vn 0.9694 0.0000 0.2457
vn 0.9936 0.0000 0.1134
vn -0.2457 0.0000 0.9694
vn -0.3966 0.0000 0.9180
vn -0.5562 0.0000 0.8310
vn -0.7071 0.0000 0.7071
vn -0.8310 0.0000 0.5562
vn -0.9180 0.0000 0.3966
vn -0.9694 0.0000 0.2457
vn -0.9936 0.0000 0.1134
vn 0.9694 0.0000 -0.2457
vn 0.9180 0.0000 -0.3966
vn 0.8310 0.0000 -0.5562
vn 0.7071 0.0000 -0.7071
vn 0.5562 0.0000 -0.8310
vn 0.3966 0.0000 -0.9180
vn 0.2457 0.0000 -0.9694
vn 0.1134 0.0000 -0.9936
vn -0.2457 0.0000 -0.9694
vn -0.3966 0.0000 -0.9180
vn -0.5562 0.0000 -0.8310
vn -0.7071 0.0000 -0.7071
vn -0.8310 0.0000 -0.5562
vn -0.9180 0.0000 -0.3966
vn -0.9694 0.0000 -0.2457
vn -0.9936 0.0000 -0.1134
# 46 vertex normals

vt 0.1031 0.0000 -0.0000
vt 0.0835 0.0020 -0.0000
vt 0.0660 0.0080 -0.0000
vt 0.0505 0.0180 -0.0000
vt 0.0371 0.0319 -0.0000
vt 0.0258 0.0499 -0.0000
vt 0.0165 0.0718 -0.0000
vt 0.0093 0.0978 -0.0000
vt 0.0041 0.1277 -0.0000
vt 0.0010 0.1616 -0.0000
vt 0.0000 0.1995 -0.0000
vt 0.0000 0.8005 -0.0000
vt 0.0010 0.8384 -0.0000
vt 0.0041 0.8723 -0.0000
vt 0.0093 0.9022 -0.0000
vt 0.0165 0.9282 -0.0000
vt 0.0258 0.9501 -0.0000
vt 0.0371 0.9681 -0.0000
vt 0.0505 0.9820 -0.0000
vt 0.0660 0.9920 -0.0000
vt 0.0835 0.9980 -0.0000
vt 0.1031 1.0000 -0.0000
vt 0.8969 1.0000 -0.0000
vt 0.9165 0.9980 -0.0000
vt 0.9340 0.9920 -0.0000
vt 0.9495 0.9820 -0.0000
vt 0.9629 0.9681 -0.0000
vt 0.9742 0.9501 -0.0000
vt 0.9835 0.9282 -0.0000
vt 0.9907 0.9022 -0.0000
vt 0.9959 0.8723 -0.0000
vt 0.9990 0.8384 -0.0000
vt 1.0000 0.8005 -0.0000
vt 1.0000 0.1995 -0.0000
vt 0.9990 0.1616 -0.0000
vt 0.9959 0.1277 -0.0000
vt 0.9907 0.0978 -0.0000
vt 0.9835 0.0718 -0.0000
vt 0.9742 0.0499 -0.0000
vt 0.9629 0.0319 -0.0000
vt 0.9495 0.0180 -0.0000
vt 0.9340 0.0080 -0.0000
vt 0.9165 0.0020 -0.0000
vt 0.8969 0.0000 -0.0000
vt 0.0000 0.1995 1.0000
vt 0.0010 0.1616 1.0000
vt 0.0041 0.1277 1.0000
vt 0.0093 0.0978 1.0000
vt 0.0165 0.0718 1.0000
vt 0.0258 0.0499 1.0000
vt 0.0371 0.0319 1.0000
vt 0.0505 0.0180 1.0000
vt 0.0660 0.0080 1.0000
vt 0.0835 0.0020 1.0000
vt 0.1031 0.0000 1.0000
vt 0.8969 0.0000 1.0000
vt 0.9165 0.0020 1.0000
vt 0.9340 0.0080 1.0000
vt 0.9495 0.0180 1.0000
vt 0.9629 0.0319 1.0000
vt 0.9742 0.0499 1.0000
vt 0.9835 0.0718 1.0000
vt 0.9907 0.0978 1.0000
vt 0.9959 0.1277 1.0000
vt 0.9990 0.1616 1.0000
vt 1.0000 0.1995 1.0000
vt 1.0000 0.8005 1.0000
vt 0.9990 0.8384 1.0000
vt 0.9959 0.8723 1.0000
vt 0.9907 0.9022 1.0000
vt 0.9835 0.9282 1.0000
vt 0.9742 0.9501 1.0000
vt 0.9629 0.9681 1.0000
vt 0.9495 0.9820 1.0000
vt 0.9340 0.9920 1.0000
vt 0.9165 0.9980 1.0000
vt 0.8969 1.0000 1.0000
vt 0.1031 1.0000 1.0000
vt 0.0835 0.9980 1.0000
vt 0.0660 0.9920 1.0000
vt 0.0505 0.9820 1.0000
vt 0.0371 0.9681 1.0000
vt 0.0258 0.9501 1.0000
vt 0.0165 0.9282 1.0000
vt 0.0093 0.9022 1.0000
vt 0.0041 0.8723 1.0000
vt 0.0010 0.8384 1.0000
vt 0.0000 0.8005 1.0000
# 88 texture coords

g Box001
usemtl Material__25
s 1
f 1/1/1 2/2/1 3/3/1 4/4/1 5/5/1 6/6/1 7/7/1 8/8/1 9/9/1 10/10/1 11/11/1 12/12/1 13/13/1 14/14/1 15/15/1 16/16/1 17/17/1 18/18/1 19/19/1 20/20/1 21/21/1 22/22/1 23/23/1 24/24/1 25/25/1 26/26/1 27/27/1 28/28/1 29/29/1 30/30/1 31/31/1 32/32/1 33/33/1 34/34/1 35/35/1 36/36/1 37/37/1 38/38/1 39/39/1 40/40/1 41/41/1 42/42/1 43/43/1 44/44/1 
f 45/45/2 46/46/2 47/47/2 48/48/2 49/49/2 50/50/2 51/51/2 52/52/2 53/53/2 54/54/2 55/55/2 56/56/2 57/57/2 58/58/2 59/59/2 60/60/2 61/61/2 62/62/2 63/63/2 64/64/2 65/65/2 66/66/2 67/67/2 68/68/2 69/69/2 70/70/2 71/71/2 72/72/2 73/73/2 74/74/2 75/75/2 76/76/2 77/77/2 78/78/2 79/79/2 80/80/2 81/81/2 82/82/2 83/83/2 84/84/2 85/85/2 86/86/2 87/87/2 88/88/2 
s 2
f 1/1/3 44/44/4 56/56/4 55/55/3 
f 34/34/5 33/33/6 67/67/6 66/66/5 
f 23/23/7 22/22/8 78/78/8 77/77/7 
f 12/12/9 11/11/10 45/45/10 88/88/9 
f 44/44/4 43/43/11 57/57/11 56/56/4 
f 55/55/3 54/54/12 2/2/12 1/1/3 
f 33/33/6 32/32/13 68/68/13 67/67/6 
f 22/22/8 21/21/14 79/79/14 78/78/8 
f 43/43/11 42/42/15 58/58/15 57/57/11 
f 42/42/15 41/41/16 59/59/16 58/58/15 
f 41/41/16 40/40/17 60/60/17 59/59/16 
f 40/40/17 39/39/18 61/61/18 60/60/17 
f 39/39/18 38/38/19 62/62/19 61/61/18 
f 38/38/19 37/37/20 63/63/20 62/62/19 
f 37/37/20 36/36/21 64/64/21 63/63/20 
f 36/36/21 35/35/22 65/65/22 64/64/21 
f 35/35/22 34/34/5 66/66/5 65/65/22 
f 54/54/12 53/53/23 3/3/23 2/2/12 
f 53/53/23 52/52/24 4/4/24 3/3/23 
f 52/52/24 51/51/25 5/5/25 4/4/24 
f 51/51/25 50/50/26 6/6/26 5/5/25 
f 50/50/26 49/49/27 7/7/27 6/6/26 
f 49/49/27 48/48/28 8/8/28 7/7/27 
f 48/48/28 47/47/29 9/9/29 8/8/28 
f 47/47/29 46/46/30 10/10/30 9/9/29 
f 46/46/30 45/45/10 11/11/10 10/10/30 
f 32/32/13 31/31/31 69/69/31 68/68/13 
f 31/31/31 30/30/32 70/70/32 69/69/31 
f 30/30/32 29/29/33 71/71/33 70/70/32 
f 29/29/33 28/28/34 72/72/34 71/71/33 
f 28/28/34 27/27/35 73/73/35 72/72/34 
f 27/27/35 26/26/36 74/74/36 73/73/35 
f 26/26/36 25/25/37 75/75/37 74/74/36 
f 25/25/37 24/24/38 76/76/38 75/75/37 
f 24/24/38 23/23/7 77/77/7 76/76/38 
f 21/21/14 20/20/39 80/80/39 79/79/14 
f 20/20/39 19/19/40 81/81/40 80/80/39 
f 19/19/40 18/18/41 82/82/41 81/81/40 
f 18/18/41 17/17/42 83/83/42 82/82/41 
f 17/17/42 16/16/43 84/84/43 83/83/42 
f 16/16/43 15/15/44 85/85/44 84/84/43 
f 15/15/44 14/14/45 86/86/45 85/85/44 
f 14/14/45 13/13/46 87/87/46 86/86/45 
f 13/13/46 12/12/9 88/88/9 87/87/46 
# 46 polygons

